<svg xmlns="http://www.w3.org/2000/svg" shape-rendering="geometricPrecision" text-rendering="geometricPrecision" image-rendering="optimizeQuality" fill-rule="evenodd" clip-rule="evenodd" viewBox="0 0 512 512"><path d="M256 0c141.39 0 256 114.62 256 256 0 141.39-114.61 256-256 256C114.62 512 0 397.39 0 256 0 114.62 114.62 0 256 0zm88.56 211.59c4.07-3.97 10.63-3.92 14.63.11s3.95 10.52-.12 14.49l-97.13 94.23c-4.06 3.95-10.58 3.91-14.59-.08l-94.5-94.23c-4.02-4.01-4-10.5.05-14.48 4.05-3.99 10.6-3.97 14.62.04l87.27 87.01 89.77-87.09z"/></svg>